<svg width="109" height="107" viewBox="0 0 109 107" fill="none" xmlns="http://www.w3.org/2000/svg">
<circle cx="62.2793" cy="10.2198" r="7" fill="#D8BBFF"/>
<circle cx="7.2793" cy="42.5" r="7" fill="#D8BBFF"/>
<circle cx="51.2129" cy="56.334" r="32" fill="#D8BBFF"/>
<path d="M67.2129 52.9054C67.2129 51.2545 66.8877 49.6198 66.2559 48.0945C65.6242 46.5693 64.6982 45.1834 63.5308 44.0161C62.3634 42.8487 60.9776 41.9227 59.4523 41.2909C57.9271 40.6592 56.2924 40.334 54.6415 40.334H45.4986C42.7707 40.334 40.1545 41.4177 38.2255 43.3466C36.2966 45.2755 35.2129 47.8918 35.2129 50.6197V54.0483C35.2129 55.5638 35.8149 57.0172 36.8866 58.0889C37.9582 59.1605 39.4117 59.7626 40.9272 59.7626H42.1843C42.4478 61.0533 43.1491 62.2133 44.1696 63.0463C45.19 63.8794 46.467 64.3343 47.7843 64.334H49.3615L53.9329 72.334L55.91 71.1911L51.3386 63.3168C51.1547 62.9463 50.8737 62.6325 50.5255 62.4091C50.1773 62.1857 49.775 62.061 49.3615 62.0483H47.7843C46.875 62.0483 46.0029 61.687 45.36 61.0441C44.717 60.4011 44.3557 59.529 44.3557 58.6197C44.3557 57.7104 44.717 56.8383 45.36 56.1953C46.0029 55.5524 46.875 55.1911 47.7843 55.1911H48.9272V52.9054H47.7843C46.467 52.9051 45.19 53.36 44.1696 54.1931C43.1491 55.0261 42.4478 56.1861 42.1843 57.4768H40.9272C40.0179 57.4768 39.1458 57.1156 38.5028 56.4726C37.8598 55.8297 37.4986 54.9576 37.4986 54.0483V51.7626H39.7843C40.6936 51.7626 41.5657 51.4013 42.2087 50.7584C42.8517 50.1154 43.2129 49.2433 43.2129 48.334V47.1911H40.9272V48.334C40.9272 48.6371 40.8068 48.9278 40.5924 49.1421C40.3781 49.3564 40.0874 49.4768 39.7843 49.4768H37.59C37.8646 47.5744 38.815 45.8345 40.2672 44.5753C41.7194 43.3162 43.5765 42.622 45.4986 42.6197H52.3557V44.9054C52.3557 45.2085 52.2353 45.4992 52.021 45.7135C51.8067 45.9279 51.516 46.0483 51.2129 46.0483H48.9272V48.334H51.2129C52.1222 48.334 52.9943 47.9728 53.6373 47.3298C54.2802 46.6868 54.6415 45.8147 54.6415 44.9054V42.6197C56.5547 42.6223 58.4292 43.1585 60.0545 44.1679C61.6797 45.1774 62.9911 46.6201 63.8415 48.334H62.6415C61.7321 48.334 60.8601 48.6952 60.2171 49.3382C59.5741 49.9812 59.2129 50.8532 59.2129 51.7626V52.9054H61.4986V51.7626C61.4986 51.4595 61.619 51.1688 61.8333 50.9544C62.0477 50.7401 62.3384 50.6197 62.6415 50.6197H64.6643C64.8395 51.369 64.9277 52.1359 64.9272 52.9054V54.0483C64.9272 55.5638 64.3251 57.0172 63.2535 58.0889C62.1819 59.1605 60.7284 59.7626 59.2129 59.7626H55.7843V62.0483H59.2129C60.3992 62.0466 61.5704 61.7812 62.6415 61.2711V62.0483C62.6415 62.9576 62.2802 63.8297 61.6373 64.4726C60.9943 65.1156 60.1222 65.4768 59.2129 65.4768H58.07V67.7626H59.2129C60.7284 67.7626 62.1819 67.1605 63.2535 66.0889C64.3251 65.0172 64.9272 63.5638 64.9272 62.0483V59.6368C66.3898 58.1441 67.2102 56.1382 67.2129 54.0483V52.9054Z" fill="#642DA9"/>
<circle cx="93.3789" cy="84.0149" r="7" fill="#D8BBFF"/>
</svg>
