<svg width="108" height="108" viewBox="0 0 108 108" fill="none" xmlns="http://www.w3.org/2000/svg">
<circle cx="7.76367" cy="24.1245" r="7" fill="#D8BBFF"/>
<circle cx="45.6973" cy="57.8589" r="32" fill="#D8BBFF"/>
<path d="M56.1426 55.4167H54.1426V57.4167H56.1426C56.938 57.4176 57.7005 57.734 58.2629 58.2964C58.8254 58.8588 59.1417 59.6214 59.1426 60.4167V64.4167H61.1426V60.4167C61.141 59.0911 60.6138 57.8203 59.6764 56.8829C58.7391 55.9456 57.4682 55.4183 56.1426 55.4167Z" fill="#642DA9"/>
<path d="M54.1426 45.4167C54.7359 45.4167 55.3159 45.5927 55.8093 45.9223C56.3026 46.252 56.6872 46.7205 56.9142 47.2687C57.1413 47.8169 57.2007 48.4201 57.0849 49.002C56.9692 49.584 56.6835 50.1185 56.2639 50.5381C55.8443 50.9576 55.3098 51.2433 54.7279 51.3591C54.1459 51.4749 53.5427 51.4154 52.9945 51.1884C52.4464 50.9613 51.9778 50.5768 51.6482 50.0835C51.3185 49.5901 51.1426 49.0101 51.1426 48.4167C51.1426 47.6211 51.4587 46.858 52.0213 46.2954C52.5839 45.7328 53.3469 45.4167 54.1426 45.4167ZM54.1426 43.4167C53.1537 43.4167 52.187 43.71 51.3647 44.2594C50.5425 44.8088 49.9016 45.5897 49.5232 46.5033C49.1447 47.417 49.0457 48.4223 49.2387 49.3922C49.4316 50.3621 49.9078 51.253 50.607 51.9523C51.3063 52.6515 52.1972 53.1277 53.1671 53.3207C54.137 53.5136 55.1424 53.4146 56.056 53.0361C56.9696 52.6577 57.7505 52.0168 58.2999 51.1946C58.8493 50.3724 59.1426 49.4057 59.1426 48.4167C59.1426 47.0907 58.6158 45.8189 57.6781 44.8812C56.7404 43.9435 55.4687 43.4167 54.1426 43.4167Z" fill="#642DA9"/>
<path d="M53.1426 71.4167H51.1426V69.4167C51.1417 68.6214 50.8254 67.8588 50.2629 67.2964C49.7005 66.734 48.938 66.4176 48.1426 66.4167H44.1426C43.3472 66.4176 42.5846 66.734 42.0222 67.2964C41.4598 67.8588 41.1435 68.6214 41.1426 69.4167V71.4167H39.1426V69.4167C39.1441 68.0911 39.6714 66.8203 40.6088 65.8829C41.5461 64.9456 42.817 64.4183 44.1426 64.4167H48.1426C49.4682 64.4183 50.739 64.9456 51.6764 65.8829C52.6137 66.8203 53.141 68.0911 53.1426 69.4167V71.4167Z" fill="#642DA9"/>
<path d="M46.1426 54.4167C46.7359 54.4167 47.3159 54.5927 47.8093 54.9223C48.3026 55.252 48.6872 55.7205 48.9142 56.2687C49.1413 56.8169 49.2007 57.4201 49.0849 58.002C48.9692 58.584 48.6835 59.1185 48.2639 59.5381C47.8443 59.9576 47.3098 60.2433 46.7279 60.3591C46.1459 60.4749 45.5427 60.4154 44.9945 60.1884C44.4464 59.9613 43.9778 59.5768 43.6482 59.0835C43.3185 58.5901 43.1426 58.0101 43.1426 57.4167C43.1426 56.6211 43.4587 55.858 44.0213 55.2954C44.5839 54.7328 45.3469 54.4167 46.1426 54.4167ZM46.1426 52.4167C45.1537 52.4167 44.187 52.71 43.3647 53.2594C42.5425 53.8088 41.9016 54.5897 41.5232 55.5033C41.1447 56.417 41.0457 57.4223 41.2387 58.3922C41.4316 59.3621 41.9078 60.253 42.607 60.9523C43.3063 61.6515 44.1972 62.1277 45.1671 62.3207C46.137 62.5136 47.1424 62.4146 48.056 62.0361C48.9696 61.6577 49.7505 61.0168 50.2999 60.1946C50.8493 59.3724 51.1426 58.4057 51.1426 57.4167C51.1426 56.0907 50.6158 54.8189 49.6781 53.8812C48.7404 52.9435 47.4687 52.4167 46.1426 52.4167Z" fill="#642DA9"/>
<path d="M38.1426 55.4167H36.1426C34.817 55.4183 33.5461 55.9456 32.6088 56.8829C31.6714 57.8203 31.1441 59.0911 31.1426 60.4167V64.4167H33.1426V60.4167C33.1435 59.6214 33.4598 58.8588 34.0222 58.2964C34.5846 57.734 35.3472 57.4176 36.1426 57.4167H38.1426V55.4167Z" fill="#642DA9"/>
<path d="M38.1426 45.4167C38.7359 45.4167 39.3159 45.5927 39.8093 45.9223C40.3026 46.252 40.6872 46.7205 40.9142 47.2687C41.1413 47.8169 41.2007 48.4201 41.0849 49.002C40.9692 49.584 40.6835 50.1185 40.2639 50.5381C39.8443 50.9576 39.3098 51.2433 38.7279 51.3591C38.1459 51.4749 37.5427 51.4154 36.9945 51.1884C36.4464 50.9613 35.9778 50.5768 35.6482 50.0835C35.3185 49.5901 35.1426 49.0101 35.1426 48.4167C35.1426 47.6211 35.4587 46.858 36.0213 46.2954C36.5839 45.7328 37.3469 45.4167 38.1426 45.4167ZM38.1426 43.4167C37.1537 43.4167 36.187 43.71 35.3647 44.2594C34.5425 44.8088 33.9016 45.5897 33.5232 46.5033C33.1447 47.417 33.0457 48.4223 33.2387 49.3922C33.4316 50.3621 33.9078 51.253 34.607 51.9523C35.3063 52.6515 36.1972 53.1277 37.1671 53.3207C38.137 53.5136 39.1424 53.4146 40.056 53.0361C40.9696 52.6577 41.7505 52.0168 42.2999 51.1946C42.8493 50.3724 43.1426 49.4057 43.1426 48.4167C43.1426 47.0907 42.6158 45.8189 41.6781 44.8812C40.7404 43.9435 39.4687 43.4167 38.1426 43.4167Z" fill="#642DA9"/>
</svg>
