<svg width="108" height="107" viewBox="0 0 108 107" fill="none" xmlns="http://www.w3.org/2000/svg">
<circle cx="90.3574" cy="68.6372" r="7" fill="#D8BBFF"/>
<circle cx="12.416" cy="15.3737" r="7" fill="#D8BBFF"/>
<circle cx="45.9277" cy="54.3737" r="32" fill="#D8BBFF"/>
<path d="M57.4729 50.0872C57.1178 50.0869 56.7661 50.1575 56.4385 50.2948C56.1109 50.432 55.814 50.6332 55.565 50.8866L55.1718 51.2888L54.7748 50.8866C54.5258 50.6334 54.2288 50.4323 53.9013 50.2951C53.5737 50.1578 53.2221 50.0872 52.867 50.0872C52.5119 50.0872 52.1603 50.1578 51.8327 50.2951C51.5052 50.4323 51.2082 50.6334 50.9591 50.8866C50.4533 51.4027 50.1699 52.0966 50.1699 52.8193C50.1699 53.542 50.4533 54.2359 50.9591 54.7521L55.1718 59.0158L59.3807 54.7521C59.8866 54.2359 60.17 53.542 60.17 52.8193C60.17 52.0966 59.8866 51.4027 59.3807 50.8866C59.1318 50.6332 58.8349 50.4321 58.5073 50.2948C58.1798 50.1575 57.8281 50.087 57.4729 50.0872Z" fill="#642DA9"/>
<path d="M32.1699 68.0872H34.1699V63.0872C34.1715 61.7616 34.6988 60.4907 35.6361 59.5533C36.5735 58.616 37.8443 58.0887 39.1699 58.0872H45.1699C46.4955 58.0887 47.7664 58.616 48.7037 59.5533C49.6411 60.4907 50.1684 61.7616 50.1699 63.0872V68.0872H52.1699V63.0872C52.1678 61.2313 51.4296 59.4521 50.1173 58.1398C48.805 56.8275 47.0258 56.0893 45.1699 56.0872H39.1699C37.3141 56.0893 35.5349 56.8275 34.2226 58.1398C32.9103 59.4521 32.1721 61.2313 32.1699 63.0872V68.0872Z" fill="#642DA9"/>
<path d="M42.1699 42.0872C43.1588 42.0872 44.1255 42.3804 44.9478 42.9298C45.77 43.4792 46.4109 44.2601 46.7893 45.1737C47.1678 46.0874 47.2668 47.0927 47.0739 48.0626C46.8809 49.0325 46.4047 49.9234 45.7055 50.6227C45.0062 51.322 44.1153 51.7982 43.1454 51.9911C42.1755 52.184 41.1701 52.085 40.2565 51.7066C39.3429 51.3281 38.562 50.6873 38.0126 49.865C37.4632 49.0428 37.1699 48.0761 37.1699 47.0872C37.1699 45.7611 37.6967 44.4893 38.6344 43.5516C39.5721 42.6139 40.8438 42.0872 42.1699 42.0872ZM42.1699 40.0872C40.7855 40.0872 39.4321 40.4977 38.2809 41.2669C37.1298 42.036 36.2326 43.1293 35.7028 44.4084C35.173 45.6875 35.0343 47.0949 35.3044 48.4528C35.5745 49.8107 36.2412 51.0579 37.2202 52.0369C38.1991 53.0159 39.4464 53.6826 40.8043 53.9527C42.1622 54.2228 43.5696 54.0841 44.8487 53.5543C46.1278 53.0245 47.221 52.1273 47.9902 50.9761C48.7594 49.825 49.1699 48.4716 49.1699 47.0872C49.1699 45.2306 48.4324 43.4502 47.1197 42.1374C45.8069 40.8247 44.0264 40.0872 42.1699 40.0872Z" fill="#642DA9"/>
</svg>
