<svg width="108" height="108" viewBox="0 0 108 108" fill="none" xmlns="http://www.w3.org/2000/svg">
<circle cx="18.4492" cy="90.2856" r="7" fill="#D8BBFF"/>
<circle cx="31.1016" cy="16.3505" r="7" fill="#D8BBFF"/>
<circle cx="54.0352" cy="57.6844" r="32" fill="#D8BBFF"/>
<path d="M64.3209 50.7944H64.2523C63.9615 48.2859 62.76 45.9718 60.8762 44.2921C58.9924 42.6125 56.5578 41.6844 54.0352 41.6844C51.5125 41.6844 49.0779 42.6125 47.1941 44.2921C45.3103 45.9718 44.1088 48.2859 43.818 50.7944H43.7494C42.2339 50.7944 40.7805 51.3971 39.7088 52.47C38.6372 53.5428 38.0352 54.9978 38.0352 56.515C38.0352 58.0322 38.6372 59.4872 39.7088 60.56C40.7805 61.6329 42.2339 62.2356 43.7494 62.2356H46.0352V51.9386C46.0352 49.8145 46.878 47.7774 48.3783 46.2755C49.8786 44.7735 51.9134 43.9298 54.0352 43.9298C56.1569 43.9298 58.1917 44.7735 59.692 46.2755C61.1923 47.7774 62.0352 49.8145 62.0352 51.9386V63.3797C62.0344 64.4279 61.6742 65.4441 61.0147 66.2584C60.3553 67.0727 59.4366 67.6356 58.4123 67.8531C58.1072 66.782 57.4224 65.859 56.4862 65.2571C55.55 64.6553 54.4266 64.4159 53.3267 64.5839C52.2268 64.7518 51.2259 65.3156 50.5115 66.1695C49.7971 67.0234 49.4183 68.1089 49.4461 69.2224C49.4739 70.3359 49.9064 71.401 50.6625 72.2181C51.4186 73.0352 52.4465 73.5482 53.5534 73.6609C54.6603 73.7737 55.7703 73.4784 56.6753 72.8305C57.5803 72.1825 58.2182 71.2264 58.4694 70.1414C60.0912 69.9007 61.573 69.0863 62.6465 67.8458C63.72 66.6053 64.314 65.0209 64.3209 63.3797V62.2356C65.8364 62.2356 67.2898 61.6329 68.3615 60.56C69.4331 59.4872 70.0352 58.0322 70.0352 56.515C70.0352 54.9978 69.4331 53.5428 68.3615 52.47C67.2898 51.3971 65.8364 50.7944 64.3209 50.7944ZM40.3209 56.515C40.3209 55.6047 40.6821 54.7317 41.3251 54.088C41.9681 53.4443 42.8401 53.0827 43.7494 53.0827V59.9473C42.8401 59.9473 41.9681 59.5857 41.3251 58.942C40.6821 58.2983 40.3209 57.4253 40.3209 56.515ZM54.0352 71.3884C53.5831 71.3884 53.1412 71.2542 52.7653 71.0028C52.3894 70.7514 52.0964 70.394 51.9234 69.9759C51.7504 69.5578 51.7052 69.0977 51.7934 68.6538C51.8816 68.2099 52.0993 67.8022 52.4189 67.4822C52.7386 67.1622 53.1459 66.9443 53.5892 66.856C54.0326 66.7677 54.4922 66.813 54.9099 66.9862C55.3275 67.1594 55.6845 67.4527 55.9357 67.829C56.1868 68.2052 56.3209 68.6477 56.3209 69.1002C56.3209 69.7071 56.0801 70.2891 55.6514 70.7182C55.2227 71.1474 54.6414 71.3884 54.0352 71.3884ZM64.3209 59.9473V53.0827C65.2302 53.0827 66.1023 53.4443 66.7452 54.088C67.3882 54.7317 67.7494 55.6047 67.7494 56.515C67.7494 57.4253 67.3882 58.2983 66.7452 58.942C66.1023 59.5857 65.2302 59.9473 64.3209 59.9473Z" fill="#642DA9"/>
</svg>
