<svg width="108" height="108" viewBox="0 0 108 108" fill="none" xmlns="http://www.w3.org/2000/svg">
<circle cx="50.2051" cy="57.8589" r="32" fill="#D8BBFF"/>
<path d="M49.4896 57.1535L41.4922 65.1509L42.9064 66.5651L50.9038 58.5677L49.4896 57.1535Z" fill="#642DA9"/>
<path d="M51.2049 71.8588C51.0782 71.8591 50.9527 71.8354 50.8349 71.7888C50.6711 71.7235 50.5274 71.616 50.4185 71.4773C50.3097 71.3386 50.2394 71.1735 50.2149 70.9988L49.2149 63.9988L51.2149 63.7188L51.9649 68.9888L55.2049 66.3788V58.8588C55.2041 58.7272 55.2294 58.5968 55.2791 58.4749C55.3289 58.3531 55.4022 58.2423 55.4949 58.1488L59.5649 54.0788C60.4035 53.2459 61.0687 52.2549 61.5218 51.1632C61.975 50.0715 62.2071 48.9008 62.2049 47.7188V45.8588H60.3449C59.1629 45.8566 57.9922 46.0887 56.9005 46.5419C55.8088 46.9951 54.8178 47.6602 53.9849 48.4988L49.9149 52.5688C49.8215 52.6615 49.7106 52.7348 49.5888 52.7846C49.467 52.8344 49.3365 52.8596 49.2049 52.8588H41.6849L39.0749 56.1188L44.3449 56.8688L44.0649 58.8688L37.0649 57.8688C36.8902 57.8443 36.7252 57.7741 36.5864 57.6652C36.4477 57.5563 36.3402 57.4127 36.2749 57.2488C36.2088 57.0839 36.1878 56.9042 36.2142 56.7285C36.2406 56.5527 36.3133 56.3871 36.4249 56.2488L40.4249 51.2488C40.517 51.1291 40.6351 51.0319 40.7701 50.9643C40.9052 50.8968 41.0539 50.8607 41.2049 50.8588H48.7949L52.5649 47.0788C53.5841 46.0539 54.7966 45.2416 56.1321 44.6888C57.4676 44.1361 58.8995 43.854 60.3449 43.8588H62.2049C62.7353 43.8588 63.244 44.0695 63.6191 44.4446C63.9942 44.8197 64.2049 45.3284 64.2049 45.8588V47.7188C64.2098 49.1642 63.9277 50.5961 63.3749 51.9317C62.8222 53.2672 62.0098 54.4797 60.9849 55.4988L57.2049 59.2688V66.8588C57.2042 67.009 57.1697 67.1572 57.1039 67.2922C57.0381 67.4272 56.9428 67.5457 56.8249 67.6388L51.8249 71.6388C51.649 71.78 51.4305 71.8575 51.2049 71.8588Z" fill="#642DA9"/>
<circle cx="12.1934" cy="30.913" r="7" fill="#D8BBFF"/>
<circle cx="97.8535" cy="76.913" r="7" fill="#D8BBFF"/>
</svg>
