<svg width="108" height="107" viewBox="0 0 108 107" fill="none" xmlns="http://www.w3.org/2000/svg">
<circle cx="53.4629" cy="56.2893" r="32" fill="#D8BBFF"/>
<circle cx="95.5293" cy="25.7107" r="7" fill="#D8BBFF"/>
<path d="M60.7241 68.055H41.2955C40.6893 68.055 40.1079 67.8142 39.6792 67.3855C39.2506 66.9569 39.0098 66.3755 39.0098 65.7693V47.4836C39.0098 46.8774 39.2506 46.296 39.6792 45.8673C40.1079 45.4387 40.6893 45.1979 41.2955 45.1979H60.7241C61.3303 45.1979 61.9116 45.4387 62.3403 45.8673C62.769 46.296 63.0098 46.8774 63.0098 47.4836V52.1236L69.2041 47.7007C69.3746 47.5793 69.5753 47.507 69.7841 47.4919C69.993 47.4767 70.202 47.5192 70.3883 47.6147C70.5746 47.7102 70.7311 47.8551 70.8407 48.0335C70.9503 48.212 71.0088 48.4171 71.0098 48.6264V64.6264C71.0088 64.8358 70.9503 65.0409 70.8407 65.2194C70.7311 65.3978 70.5746 65.5427 70.3883 65.6382C70.202 65.7337 69.993 65.7762 69.7841 65.761C69.5753 65.7459 69.3746 65.6736 69.2041 65.5522L63.0098 61.1293V65.7693C63.0098 66.3755 62.769 66.9569 62.3403 67.3855C61.9116 67.8142 61.3303 68.055 60.7241 68.055ZM41.2955 47.4836V65.7693H60.7241V58.9122C60.725 58.7028 60.7835 58.4977 60.8931 58.3193C61.0027 58.1408 61.1592 57.996 61.3455 57.9004C61.5319 57.8049 61.7409 57.7624 61.9497 57.7776C62.1585 57.7927 62.3592 57.865 62.5298 57.9864L68.7241 62.4093V50.8436L62.5298 55.2664C62.3592 55.3879 62.1585 55.4602 61.9497 55.4753C61.7409 55.4905 61.5319 55.448 61.3455 55.3525C61.1592 55.2569 61.0027 55.1121 60.8931 54.9336C60.7835 54.7552 60.725 54.5501 60.7241 54.3407V47.4836H41.2955Z" fill="#642DA9"/>
</svg>
